<mxfile host="app.diagrams.net" modified="2021-11-27T19:32:37.451Z" agent="5.0 (X11; Linux x86_64) AppleWebKit/537.36 (KHTML, like Gecko) Chrome/91.0.4472.114 Safari/537.36" etag="JYST62RlM0fQ8cu99iHO" version="15.8.3" type="github">
  <diagram id="C5RBs43oDa-KdzZeNtuy" name="Page-1">
    <mxGraphModel dx="1896" dy="969" grid="1" gridSize="10" guides="1" tooltips="1" connect="1" arrows="1" fold="1" page="1" pageScale="1" pageWidth="827" pageHeight="1169" math="0" shadow="0">
      <root>
        <mxCell id="WIyWlLk6GJQsqaUBKTNV-0" />
        <mxCell id="WIyWlLk6GJQsqaUBKTNV-1" parent="WIyWlLk6GJQsqaUBKTNV-0" />
        <mxCell id="vWnuXFx7iVDM5a5PLiHu-0" value="Operator" style="shape=umlActor;verticalLabelPosition=bottom;verticalAlign=top;html=1;outlineConnect=0;" vertex="1" parent="WIyWlLk6GJQsqaUBKTNV-1">
          <mxGeometry x="60" y="400" width="30" height="60" as="geometry" />
        </mxCell>
        <mxCell id="vWnuXFx7iVDM5a5PLiHu-1" value="Просмотр температуры, влажности, давления в машинном зале" style="ellipse;whiteSpace=wrap;html=1;" vertex="1" parent="WIyWlLk6GJQsqaUBKTNV-1">
          <mxGeometry x="410" y="55" width="180" height="80" as="geometry" />
        </mxCell>
        <mxCell id="vWnuXFx7iVDM5a5PLiHu-9" value="" style="edgeStyle=orthogonalEdgeStyle;rounded=0;orthogonalLoop=1;jettySize=auto;html=1;" edge="1" parent="WIyWlLk6GJQsqaUBKTNV-1" source="vWnuXFx7iVDM5a5PLiHu-2" target="vWnuXFx7iVDM5a5PLiHu-8">
          <mxGeometry relative="1" as="geometry" />
        </mxCell>
        <mxCell id="vWnuXFx7iVDM5a5PLiHu-18" value="" style="edgeStyle=orthogonalEdgeStyle;rounded=0;orthogonalLoop=1;jettySize=auto;html=1;" edge="1" parent="WIyWlLk6GJQsqaUBKTNV-1" source="vWnuXFx7iVDM5a5PLiHu-2" target="vWnuXFx7iVDM5a5PLiHu-6">
          <mxGeometry relative="1" as="geometry" />
        </mxCell>
        <mxCell id="vWnuXFx7iVDM5a5PLiHu-2" value="Просмотр топологии всей сети" style="ellipse;whiteSpace=wrap;html=1;" vertex="1" parent="WIyWlLk6GJQsqaUBKTNV-1">
          <mxGeometry x="170" y="160" width="160" height="60" as="geometry" />
        </mxCell>
        <mxCell id="vWnuXFx7iVDM5a5PLiHu-3" value="Критические ситуации" style="ellipse;whiteSpace=wrap;html=1;" vertex="1" parent="WIyWlLk6GJQsqaUBKTNV-1">
          <mxGeometry x="160" y="740" width="160" height="60" as="geometry" />
        </mxCell>
        <mxCell id="vWnuXFx7iVDM5a5PLiHu-4" value="Просмотр схемы электроснабжения" style="ellipse;whiteSpace=wrap;html=1;" vertex="1" parent="WIyWlLk6GJQsqaUBKTNV-1">
          <mxGeometry x="170" y="540" width="160" height="70" as="geometry" />
        </mxCell>
        <mxCell id="vWnuXFx7iVDM5a5PLiHu-5" value="Просмотр состояния работы бесперебойников" style="ellipse;whiteSpace=wrap;html=1;" vertex="1" parent="WIyWlLk6GJQsqaUBKTNV-1">
          <mxGeometry x="170" y="460" width="160" height="60" as="geometry" />
        </mxCell>
        <mxCell id="vWnuXFx7iVDM5a5PLiHu-6" value="Просмотр состояния конкретного устройства" style="ellipse;whiteSpace=wrap;html=1;" vertex="1" parent="WIyWlLk6GJQsqaUBKTNV-1">
          <mxGeometry x="290" y="270" width="120" height="80" as="geometry" />
        </mxCell>
        <mxCell id="vWnuXFx7iVDM5a5PLiHu-7" value="Видеонаблюдение" style="ellipse;whiteSpace=wrap;html=1;" vertex="1" parent="WIyWlLk6GJQsqaUBKTNV-1">
          <mxGeometry x="170" y="640" width="160" height="60" as="geometry" />
        </mxCell>
        <mxCell id="vWnuXFx7iVDM5a5PLiHu-8" value="Обозначение перегруженнных каналов" style="ellipse;whiteSpace=wrap;html=1;" vertex="1" parent="WIyWlLk6GJQsqaUBKTNV-1">
          <mxGeometry x="450" y="160" width="120" height="60" as="geometry" />
        </mxCell>
        <mxCell id="vWnuXFx7iVDM5a5PLiHu-10" value="Administrator" style="shape=umlActor;verticalLabelPosition=bottom;verticalAlign=top;html=1;outlineConnect=0;" vertex="1" parent="WIyWlLk6GJQsqaUBKTNV-1">
          <mxGeometry x="60" y="850" width="30" height="60" as="geometry" />
        </mxCell>
        <mxCell id="vWnuXFx7iVDM5a5PLiHu-11" style="edgeStyle=orthogonalEdgeStyle;rounded=0;orthogonalLoop=1;jettySize=auto;html=1;exitX=0.5;exitY=0.5;exitDx=0;exitDy=0;exitPerimeter=0;" edge="1" parent="WIyWlLk6GJQsqaUBKTNV-1" source="vWnuXFx7iVDM5a5PLiHu-10" target="vWnuXFx7iVDM5a5PLiHu-0">
          <mxGeometry relative="1" as="geometry">
            <mxPoint x="100" y="300" as="targetPoint" />
          </mxGeometry>
        </mxCell>
        <mxCell id="vWnuXFx7iVDM5a5PLiHu-13" value="" style="edgeStyle=orthogonalEdgeStyle;rounded=0;orthogonalLoop=1;jettySize=auto;html=1;" edge="1" parent="WIyWlLk6GJQsqaUBKTNV-1" source="vWnuXFx7iVDM5a5PLiHu-12" target="vWnuXFx7iVDM5a5PLiHu-1">
          <mxGeometry relative="1" as="geometry" />
        </mxCell>
        <mxCell id="vWnuXFx7iVDM5a5PLiHu-12" value="Состояние работы машинного зала" style="ellipse;whiteSpace=wrap;html=1;" vertex="1" parent="WIyWlLk6GJQsqaUBKTNV-1">
          <mxGeometry x="170" y="55" width="160" height="70" as="geometry" />
        </mxCell>
        <mxCell id="vWnuXFx7iVDM5a5PLiHu-17" value="" style="edgeStyle=orthogonalEdgeStyle;rounded=0;orthogonalLoop=1;jettySize=auto;html=1;" edge="1" parent="WIyWlLk6GJQsqaUBKTNV-1" source="vWnuXFx7iVDM5a5PLiHu-16" target="vWnuXFx7iVDM5a5PLiHu-6">
          <mxGeometry relative="1" as="geometry" />
        </mxCell>
        <mxCell id="vWnuXFx7iVDM5a5PLiHu-16" value="Поиск конкретного устройства по IP" style="ellipse;whiteSpace=wrap;html=1;" vertex="1" parent="WIyWlLk6GJQsqaUBKTNV-1">
          <mxGeometry x="170" y="370" width="160" height="60" as="geometry" />
        </mxCell>
        <mxCell id="vWnuXFx7iVDM5a5PLiHu-23" value="" style="edgeStyle=orthogonalEdgeStyle;rounded=0;orthogonalLoop=1;jettySize=auto;html=1;entryX=-0.01;entryY=0.65;entryDx=0;entryDy=0;entryPerimeter=0;" edge="1" parent="WIyWlLk6GJQsqaUBKTNV-1" source="vWnuXFx7iVDM5a5PLiHu-19" target="vWnuXFx7iVDM5a5PLiHu-20">
          <mxGeometry relative="1" as="geometry" />
        </mxCell>
        <mxCell id="vWnuXFx7iVDM5a5PLiHu-19" value="Изменение топологии сети" style="ellipse;whiteSpace=wrap;html=1;" vertex="1" parent="WIyWlLk6GJQsqaUBKTNV-1">
          <mxGeometry x="200" y="840" width="160" height="60" as="geometry" />
        </mxCell>
        <mxCell id="vWnuXFx7iVDM5a5PLiHu-20" value="Отключение устройства от сети" style="ellipse;whiteSpace=wrap;html=1;" vertex="1" parent="WIyWlLk6GJQsqaUBKTNV-1">
          <mxGeometry x="460" y="770" width="140" height="60" as="geometry" />
        </mxCell>
        <mxCell id="vWnuXFx7iVDM5a5PLiHu-21" value="Добавление устройства в сеть" style="ellipse;whiteSpace=wrap;html=1;" vertex="1" parent="WIyWlLk6GJQsqaUBKTNV-1">
          <mxGeometry x="470" y="880" width="150" height="60" as="geometry" />
        </mxCell>
        <mxCell id="vWnuXFx7iVDM5a5PLiHu-39" value="" style="edgeStyle=orthogonalEdgeStyle;rounded=0;orthogonalLoop=1;jettySize=auto;html=1;" edge="1" parent="WIyWlLk6GJQsqaUBKTNV-1" source="vWnuXFx7iVDM5a5PLiHu-22" target="vWnuXFx7iVDM5a5PLiHu-38">
          <mxGeometry relative="1" as="geometry" />
        </mxCell>
        <mxCell id="vWnuXFx7iVDM5a5PLiHu-22" value="Конфигурация устройства" style="ellipse;whiteSpace=wrap;html=1;" vertex="1" parent="WIyWlLk6GJQsqaUBKTNV-1">
          <mxGeometry x="190" y="960" width="120" height="80" as="geometry" />
        </mxCell>
        <mxCell id="vWnuXFx7iVDM5a5PLiHu-24" value="" style="edgeStyle=orthogonalEdgeStyle;rounded=0;orthogonalLoop=1;jettySize=auto;html=1;entryX=0;entryY=0.5;entryDx=0;entryDy=0;exitX=1;exitY=0.5;exitDx=0;exitDy=0;" edge="1" parent="WIyWlLk6GJQsqaUBKTNV-1" source="vWnuXFx7iVDM5a5PLiHu-19" target="vWnuXFx7iVDM5a5PLiHu-21">
          <mxGeometry relative="1" as="geometry">
            <mxPoint x="299.9998024688921" y="870.0666666666666" as="sourcePoint" />
            <mxPoint x="388.5999999999999" y="829" as="targetPoint" />
          </mxGeometry>
        </mxCell>
        <mxCell id="vWnuXFx7iVDM5a5PLiHu-27" value="" style="endArrow=classic;html=1;rounded=0;entryX=0;entryY=0.5;entryDx=0;entryDy=0;" edge="1" parent="WIyWlLk6GJQsqaUBKTNV-1" source="vWnuXFx7iVDM5a5PLiHu-10" target="vWnuXFx7iVDM5a5PLiHu-22">
          <mxGeometry width="50" height="50" relative="1" as="geometry">
            <mxPoint x="450" y="590" as="sourcePoint" />
            <mxPoint x="440" y="730" as="targetPoint" />
          </mxGeometry>
        </mxCell>
        <mxCell id="vWnuXFx7iVDM5a5PLiHu-28" value="" style="endArrow=classic;html=1;rounded=0;exitX=1;exitY=0.3333333333333333;exitDx=0;exitDy=0;exitPerimeter=0;entryX=0;entryY=0.5;entryDx=0;entryDy=0;" edge="1" parent="WIyWlLk6GJQsqaUBKTNV-1" source="vWnuXFx7iVDM5a5PLiHu-10" target="vWnuXFx7iVDM5a5PLiHu-19">
          <mxGeometry width="50" height="50" relative="1" as="geometry">
            <mxPoint x="570" y="520" as="sourcePoint" />
            <mxPoint x="440" y="640" as="targetPoint" />
          </mxGeometry>
        </mxCell>
        <mxCell id="vWnuXFx7iVDM5a5PLiHu-29" value="" style="endArrow=classic;html=1;rounded=0;entryX=0;entryY=0.333;entryDx=0;entryDy=0;entryPerimeter=0;" edge="1" parent="WIyWlLk6GJQsqaUBKTNV-1" source="vWnuXFx7iVDM5a5PLiHu-0" target="vWnuXFx7iVDM5a5PLiHu-3">
          <mxGeometry width="50" height="50" relative="1" as="geometry">
            <mxPoint x="390" y="690" as="sourcePoint" />
            <mxPoint x="440" y="640" as="targetPoint" />
          </mxGeometry>
        </mxCell>
        <mxCell id="vWnuXFx7iVDM5a5PLiHu-31" value="" style="endArrow=classic;html=1;rounded=0;entryX=0;entryY=0.5;entryDx=0;entryDy=0;" edge="1" parent="WIyWlLk6GJQsqaUBKTNV-1" source="vWnuXFx7iVDM5a5PLiHu-0" target="vWnuXFx7iVDM5a5PLiHu-7">
          <mxGeometry width="50" height="50" relative="1" as="geometry">
            <mxPoint x="390" y="410" as="sourcePoint" />
            <mxPoint x="180" y="670" as="targetPoint" />
          </mxGeometry>
        </mxCell>
        <mxCell id="vWnuXFx7iVDM5a5PLiHu-32" value="" style="endArrow=classic;html=1;rounded=0;entryX=0;entryY=0.5;entryDx=0;entryDy=0;" edge="1" parent="WIyWlLk6GJQsqaUBKTNV-1" source="vWnuXFx7iVDM5a5PLiHu-0" target="vWnuXFx7iVDM5a5PLiHu-4">
          <mxGeometry width="50" height="50" relative="1" as="geometry">
            <mxPoint x="390" y="410" as="sourcePoint" />
            <mxPoint x="190" y="540" as="targetPoint" />
          </mxGeometry>
        </mxCell>
        <mxCell id="vWnuXFx7iVDM5a5PLiHu-33" value="" style="endArrow=classic;html=1;rounded=0;entryX=0;entryY=0.5;entryDx=0;entryDy=0;" edge="1" parent="WIyWlLk6GJQsqaUBKTNV-1" source="vWnuXFx7iVDM5a5PLiHu-0" target="vWnuXFx7iVDM5a5PLiHu-5">
          <mxGeometry width="50" height="50" relative="1" as="geometry">
            <mxPoint x="390" y="410" as="sourcePoint" />
            <mxPoint x="440" y="360" as="targetPoint" />
          </mxGeometry>
        </mxCell>
        <mxCell id="vWnuXFx7iVDM5a5PLiHu-34" value="" style="endArrow=classic;html=1;rounded=0;entryX=0;entryY=0.5;entryDx=0;entryDy=0;" edge="1" parent="WIyWlLk6GJQsqaUBKTNV-1" source="vWnuXFx7iVDM5a5PLiHu-0" target="vWnuXFx7iVDM5a5PLiHu-16">
          <mxGeometry width="50" height="50" relative="1" as="geometry">
            <mxPoint x="390" y="410" as="sourcePoint" />
            <mxPoint x="440" y="360" as="targetPoint" />
          </mxGeometry>
        </mxCell>
        <mxCell id="vWnuXFx7iVDM5a5PLiHu-35" value="" style="endArrow=classic;html=1;rounded=0;exitX=0.5;exitY=0.5;exitDx=0;exitDy=0;exitPerimeter=0;entryX=0;entryY=0.5;entryDx=0;entryDy=0;" edge="1" parent="WIyWlLk6GJQsqaUBKTNV-1" source="vWnuXFx7iVDM5a5PLiHu-0" target="vWnuXFx7iVDM5a5PLiHu-2">
          <mxGeometry width="50" height="50" relative="1" as="geometry">
            <mxPoint x="390" y="410" as="sourcePoint" />
            <mxPoint x="440" y="360" as="targetPoint" />
          </mxGeometry>
        </mxCell>
        <mxCell id="vWnuXFx7iVDM5a5PLiHu-36" value="" style="endArrow=classic;html=1;rounded=0;entryX=0;entryY=0.5;entryDx=0;entryDy=0;" edge="1" parent="WIyWlLk6GJQsqaUBKTNV-1" source="vWnuXFx7iVDM5a5PLiHu-0" target="vWnuXFx7iVDM5a5PLiHu-12">
          <mxGeometry width="50" height="50" relative="1" as="geometry">
            <mxPoint x="390" y="410" as="sourcePoint" />
            <mxPoint x="440" y="360" as="targetPoint" />
          </mxGeometry>
        </mxCell>
        <mxCell id="vWnuXFx7iVDM5a5PLiHu-38" value="Зайти в терминал устройства" style="ellipse;whiteSpace=wrap;html=1;" vertex="1" parent="WIyWlLk6GJQsqaUBKTNV-1">
          <mxGeometry x="390" y="1000" width="120" height="80" as="geometry" />
        </mxCell>
        <mxCell id="vWnuXFx7iVDM5a5PLiHu-40" value="получение даннных?" style="ellipse;whiteSpace=wrap;html=1;" vertex="1" parent="WIyWlLk6GJQsqaUBKTNV-1">
          <mxGeometry x="380" y="545" width="120" height="80" as="geometry" />
        </mxCell>
        <mxCell id="vWnuXFx7iVDM5a5PLiHu-41" value="получение даннных?" style="ellipse;whiteSpace=wrap;html=1;" vertex="1" parent="WIyWlLk6GJQsqaUBKTNV-1">
          <mxGeometry x="380" y="465" width="120" height="80" as="geometry" />
        </mxCell>
      </root>
    </mxGraphModel>
  </diagram>
</mxfile>
